<svg version="1.1" viewBox="0.0 0.0 960.0 720.0" fill="none" stroke="none" stroke-linecap="square" stroke-miterlimit="10" xmlns:xlink="http://www.w3.org/1999/xlink" xmlns="http://www.w3.org/2000/svg"><clipPath id="p.0"><path d="m0 0l960.0 0l0 720.0l-960.0 0l0 -720.0z" clip-rule="nonzero"/></clipPath><g clip-path="url(#p.0)"><path fill="#000000" fill-opacity="0.0" d="m0 0l960.0 0l0 720.0l-960.0 0z" fill-rule="evenodd"/><path fill="#000000" d="m529.2467 167.21785l59.1391 1.4750671l65.52496 -1.4750671l37.265076 1.4750671l49.824158 14.307083l40.4068 17.53543l29.706055 22.574799l26.259827 30.795288l19.422607 37.986877l7.220459 53.65616l-14.083984 59.251984l-21.70343 23.603668l-9.118103 -25.653534l-7.1102295 -22.750671l-13.451416 -22.425201l-5.548584 15.425201l-11.593201 27.682404l-18.241455 -27.13385l-22.8609 -39.5748l-20.561646 -27.719147l-26.286133 -25.67456l-23.984253 -17.433075l-36.54065 -15.406815l-39.986877 -4.102356l-41.102356 2.0524902l-16.992126 1.112854l-5.850403 -27.813644l0 -32.83989z" fill-rule="evenodd"/><path fill="#000000" d="m815.0 267.0c1.833313 4.3333435 9.166687 21.666656 11.0 26.0" fill-rule="evenodd"/><path fill="#000000" d="m737.0 224.0c4.4172974 3.0533752 18.746704 10.507874 26.503967 18.320206c7.757202 7.8123474 16.699463 23.794846 20.039368 28.553818" fill-rule="evenodd"/><path stroke="#0b5394" stroke-width="4.0" stroke-linejoin="round" stroke-linecap="butt" d="m737.0 224.0c4.4172974 3.0533752 18.746704 10.507874 26.503967 18.320206c7.757202 7.8123474 16.699463 23.794846 20.039368 28.553818" fill-rule="evenodd"/><path fill="#000000" d="m702.0 250.0c5.5 3.6666718 24.0 13.8333435 33.0 22.0c9.0 8.1666565 17.5 22.5 21.0 27.0" fill-rule="evenodd"/><path stroke="#6fa8dc" stroke-width="4.0" stroke-linejoin="round" stroke-linecap="butt" d="m702.0 250.0c5.5 3.6666718 24.0 13.8333435 33.0 22.0c9.0 8.1666565 17.5 22.5 21.0 27.0" fill-rule="evenodd"/><path fill="#000000" d="m707.0066 233.31496c-3.5 -1.6666565 -17.5 -8.333328 -21.0 -10.0" fill-rule="evenodd"/><path stroke="#0b5394" stroke-width="4.0" stroke-linejoin="round" stroke-linecap="butt" d="m707.0066 233.31496c-3.5 -1.6666565 -17.5 -8.333328 -21.0 -10.0" fill-rule="evenodd"/><path fill="#000000" d="m745.0 253.0c4.4142456 4.7458496 20.061707 19.136047 26.485535 28.475067c6.423889 9.33902 10.048157 22.965881 12.0578 27.559052" fill-rule="evenodd"/><path stroke="#0b5394" stroke-width="4.0" stroke-linejoin="round" stroke-linecap="butt" d="m745.0 253.0c4.4142456 4.7458496 20.061707 19.136047 26.485535 28.475067c6.423889 9.33902 10.048157 22.965881 12.0578 27.559052" fill-rule="evenodd"/><path fill="#000000" d="m819.7424 313.94083c-1.6870117 -3.4902954 -8.435059 -17.451508 -10.122009 -20.941803" fill-rule="evenodd"/><path stroke="#0b5394" stroke-width="4.0" stroke-linejoin="round" stroke-linecap="butt" d="m819.7424 313.94083c-1.6870117 -3.4902954 -8.435059 -17.451508 -10.122009 -20.941803" fill-rule="evenodd"/><path fill="#000000" d="m485.76904 167.21785l-59.13913 1.4750671l-65.52493 -1.4750671l-37.265076 1.4750671l-49.824158 14.307083l-40.40683 17.53543l-29.706024 22.574799l-26.259842 30.795288l-19.422577 37.986877l-7.2204742 53.65616l14.083984 59.251984l21.703415 23.603668l9.118118 -25.653534l7.1102295 -22.750671l13.451447 -22.425201l5.5485535 15.425201l11.59317 27.682404l18.24147 -27.13385l22.860886 -39.5748l20.561707 -27.719147l26.286072 -25.67456l23.984253 -17.433075l36.54068 -15.406815l39.986877 -4.102356l41.102356 2.0524902l16.992126 1.112854l5.850403 -27.813644l0 -32.83989z" fill-rule="evenodd"/><path fill="#000000" d="m200.01575 267.0c-1.8333282 4.3333435 -9.166672 21.666656 -11.0 26.0" fill-rule="evenodd"/><path fill="#000000" d="m278.01575 224.0c-4.417328 3.0533752 -18.746704 10.507874 -26.503937 18.320206c-7.7572174 7.8123474 -16.699478 23.794846 -20.039368 28.553818" fill-rule="evenodd"/><path stroke="#0b5394" stroke-width="4.0" stroke-linejoin="round" stroke-linecap="butt" d="m278.01575 224.0c-4.417328 3.0533752 -18.746704 10.507874 -26.503937 18.320206c-7.7572174 7.8123474 -16.699478 23.794846 -20.039368 28.553818" fill-rule="evenodd"/><path fill="#000000" d="m313.01575 250.0c-5.5 3.6666718 -24.0 13.8333435 -33.0 22.0c-9.0 8.1666565 -17.5 22.5 -21.0 27.0" fill-rule="evenodd"/><path stroke="#6fa8dc" stroke-width="4.0" stroke-linejoin="round" stroke-linecap="butt" d="m313.01575 250.0c-5.5 3.6666718 -24.0 13.8333435 -33.0 22.0c-9.0 8.1666565 -17.5 22.5 -21.0 27.0" fill-rule="evenodd"/><path fill="#000000" d="m308.0092 233.31496c3.5 -1.6666565 17.5 -8.333328 21.0 -10.0" fill-rule="evenodd"/><path stroke="#0b5394" stroke-width="4.0" stroke-linejoin="round" stroke-linecap="butt" d="m308.0092 233.31496c3.5 -1.6666565 17.5 -8.333328 21.0 -10.0" fill-rule="evenodd"/><path fill="#000000" d="m270.01575 253.0c-4.4142456 4.7458496 -20.061676 19.136047 -26.485565 28.475067c-6.423889 9.33902 -10.048111 22.965881 -12.057739 27.559052" fill-rule="evenodd"/><path stroke="#0b5394" stroke-width="4.0" stroke-linejoin="round" stroke-linecap="butt" d="m270.01575 253.0c-4.4142456 4.7458496 -20.061676 19.136047 -26.485565 28.475067c-6.423889 9.33902 -10.048111 22.965881 -12.057739 27.559052" fill-rule="evenodd"/><path fill="#000000" d="m195.2734 313.94083c1.6869965 -3.4902954 8.434998 -17.451508 10.121994 -20.941803" fill-rule="evenodd"/><path stroke="#0b5394" stroke-width="4.0" stroke-linejoin="round" stroke-linecap="butt" d="m195.2734 313.94083c1.6869965 -3.4902954 8.434998 -17.451508 10.121994 -20.941803" fill-rule="evenodd"/></g></svg>